<svg xmlns="http://www.w3.org/2000/svg" width="512" height="512" viewBox="69 110 172 172">
<rect x="69" y="110" width="172" height="172" rx="32" fill="#12121A" />
<path fill="#F0DFC3" d="M225.711945,199.983551 
	C225.292816,213.680542 221.995255,226.061340 214.416275,237.110443 
	C193.610641,267.442230 154.827423,271.316071 127.459396,255.072189 
	C123.775551,252.885712 120.882744,252.441498 116.873688,254.137070 
	C109.048920,257.446503 100.934502,259.899628 92.190125,259.379364 
	C83.542915,258.864868 78.616745,253.946121 78.684906,245.377151 
	C78.745262,237.789108 81.850891,231.152817 85.454010,224.735641 
	C88.304489,219.658905 91.245934,214.612274 95.084061,210.184647 
	C97.704369,207.161865 98.745560,203.844788 98.740883,199.721481 
	C98.699577,163.227264 125.082115,136.164413 161.509293,135.193466 
	C165.322968,135.091827 169.315643,134.951172 172.935333,135.916183 
	C178.310226,137.349136 182.595856,135.650055 187.146591,133.280472 
	C195.742508,128.804581 204.726822,125.462891 214.488632,124.281441 
	C227.834183,122.666267 234.932129,130.259964 231.851456,143.429901 
	C230.052628,151.119858 226.752274,158.212524 222.361359,164.760590 
	C220.327988,167.792908 220.017624,170.616058 221.473969,174.100281 
	C224.861847,182.205597 225.468460,190.867706 225.711945,199.983551 
	M212.976044,168.510834 
	C218.716415,160.882339 223.731537,152.880203 226.146439,143.492218 
	C228.308197,135.088409 225.333649,129.095078 217.846207,128.560104 
	C206.177933,127.726410 196.082672,132.729645 185.171341,138.349640 
	C187.816025,139.540573 189.463272,140.263855 191.095154,141.020279 
	C200.031250,145.162369 207.546783,151.055435 213.272079,159.124069 
	C214.113724,160.310181 215.663269,161.586777 214.829697,163.091461 
	C211.652573,168.826584 208.025726,174.252899 202.566681,179.006516 
	C201.549835,176.444733 200.923126,174.750778 200.212067,173.093002 
	C195.433319,161.951874 188.776291,152.487198 177.473648,146.963547 
	C174.609192,145.563675 172.292969,145.608887 169.595505,147.317566 
	C152.514618,158.137161 136.926010,170.829269 122.270142,184.706512 
	C120.686935,186.205612 119.364059,187.876480 119.190598,190.236053 
	C118.688568,197.065308 118.869385,203.864960 119.793037,210.651215 
	C121.255951,221.399521 126.239235,230.774902 131.349335,240.326111 
	C132.993088,240.252151 134.400635,239.345810 135.765091,238.453430 
	C144.400665,232.805634 153.133560,227.309341 161.286926,220.942139 
	C164.075363,218.764557 165.766891,216.649643 165.788437,212.774612 
	C165.823334,206.491791 170.826294,202.743942 176.973877,204.085724 
	C179.390350,204.613144 181.027267,204.346497 182.788132,202.634048 
	C193.536697,192.180939 204.343719,181.790634 212.976044,168.510834 
	M196.311264,238.774429 
	C205.223999,223.519989 207.059082,207.185013 204.308746,188.929276 
	C197.720764,194.995590 193.078613,201.379272 186.899475,206.146912 
	C184.795013,207.770645 183.863800,209.506882 184.135178,212.471619 
	C184.705627,218.704117 179.426636,223.881546 173.582184,222.584213 
	C169.742706,221.731949 167.311813,222.850525 164.693726,225.165817 
	C162.585052,227.030579 160.129227,228.496109 157.916992,230.251648 
	C151.305984,235.497787 144.002090,239.748337 136.880554,244.346085 
	C150.810440,260.746155 181.289062,262.140137 196.311264,238.774429 
	M101.954178,222.323334 
	C101.003220,218.898468 100.052269,215.473602 98.901512,211.329163 
	C91.673454,221.459351 85.061653,230.979462 83.800476,243.065674 
	C83.190475,248.911530 86.140854,252.991577 91.843674,253.598953 
	C100.879066,254.561295 109.050667,251.508087 117.776840,247.739761 
	C110.183830,240.480621 105.126755,232.419739 101.954178,222.323334 
	M129.303619,173.800827 
	C141.200867,163.092194 153.936737,153.435806 167.699600,144.113556 
	C142.265121,138.861908 122.832809,158.201233 120.741943,181.434265 
	C123.701614,178.779602 126.227280,176.514221 129.303619,173.800827 
	z" />
</svg>